ffmpeg version 3.4.8-0ubuntu0.2 Copyright (c) 2000-2020 the FFmpeg developers
  built with gcc 7 (Ubuntu 7.5.0-3ubuntu1~18.04)
  configuration: --prefix=/usr --extra-version=0ubuntu0.2 --toolchain=hardened --libdir=/usr/lib/x86_64-linux-gnu --incdir=/usr/include/x86_64-linux-gnu --enable-gpl --disable-stripping --enable-avresample --enable-avisynth --enable-gnutls --enable-ladspa --enable-libass --enable-libbluray --enable-libbs2b --enable-libcaca --enable-libcdio --enable-libflite --enable-libfontconfig --enable-libfreetype --enable-libfribidi --enable-libgme --enable-libgsm --enable-libmp3lame --enable-libmysofa --enable-libopenjpeg --enable-libopenmpt --enable-libopus --enable-libpulse --enable-librubberband --enable-librsvg --enable-libshine --enable-libsnappy --enable-libsoxr --enable-libspeex --enable-libssh --enable-libtheora --enable-libtwolame --enable-libvorbis --enable-libvpx --enable-libwavpack --enable-libwebp --enable-libx265 --enable-libxml2 --enable-libxvid --enable-libzmq --enable-libzvbi --enable-omx --enable-openal --enable-opengl --enable-sdl2 --enable-libdc1394 --enable-libdrm --enable-libiec61883 --enable-chromaprint --enable-frei0r --enable-libopencv --enable-libx264 --enable-shared
  libavutil      55. 78.100 / 55. 78.100
  libavcodec     57.107.100 / 57.107.100
  libavformat    57. 83.100 / 57. 83.100
  libavdevice    57. 10.100 / 57. 10.100
  libavfilter     6.107.100 /  6.107.100
  libavresample   3.  7.  0 /  3.  7.  0
  libswscale      4.  8.100 /  4.  8.100
  libswresample   2.  9.100 /  2.  9.100
  libpostproc    54.  7.100 / 54.  7.100
[rawvideo @ 0x556851566a20] Estimating duration from bitrate, this may be inaccurate
Input #0, rawvideo, from '../../SVC-Encoder-20220109T061506Z-001/SVC-Encoder/Dataset/RollerCoaster/6f_2x2/tile_yuv/f4_t3_480x480.yuv':
  Duration: 00:00:10.00, start: 0.000000, bitrate: 82944 kb/s
    Stream #0:0: Video: rawvideo (I420 / 0x30323449), yuv420p, 480x480, 82944 kb/s, 30 tbr, 30 tbn, 30 tbc
Stream mapping:
  Stream #0:0 -> #0:0 (rawvideo (native) -> h264 (libx264))
Press [q] to stop, [?] for help
[libx264 @ 0x556851573c60] using cpu capabilities: MMX2 SSE2Fast LZCNT SSSE3 SSE4.2 AVX
[libx264 @ 0x556851573c60] profile High, level 3.0
Output #0, rawvideo, to 'RollerCoaster_f4_t3_480x480_x264_QP_28.h264':
  Metadata:
    encoder         : Lavf57.83.100
    Stream #0:0: Video: h264 (libx264), yuv420p, 480x480, q=-1--1, 30 fps, 30 tbn, 30 tbc
    Metadata:
      encoder         : Lavc57.107.100 libx264
    Side data:
      cpb: bitrate max/min/avg: 0/0/0 buffer size: 0 vbv_delay: -1
frame=  113 fps=0.0 q=34.0 PSNR=Y:nan U:nan V:nan *:nan size=     121kB time=00:00:02.33 bitrate= 426.0kbits/s speed=4.65x    frame=  191 fps=189 q=34.0 PSNR=Y:nan U:nan V:nan *:nan size=     237kB time=00:00:04.93 bitrate= 393.5kbits/s speed=4.89x    frame=  271 fps=179 q=34.0 PSNR=Y:nan U:nan V:nan *:nan size=     256kB time=00:00:07.60 bitrate= 275.9kbits/s speed=5.02x    frame=  300 fps=156 q=34.0 LPSNR=Y:inf U:inf V:inf *:inf size=     463kB time=00:00:09.93 bitrate= 381.6kbits/s speed=5.17x    
video:463kB audio:0kB subtitle:0kB other streams:0kB global headers:0kB muxing overhead: 0.000000%
[libx264 @ 0x556851573c60] frame I:2     Avg QP:26.37  size: 22617  PSNR Mean Y:39.85 U:46.48 V:48.56 Avg:41.24 Global:41.15
[libx264 @ 0x556851573c60] frame P:76    Avg QP:27.93  size:  4523  PSNR Mean Y:37.94 U:45.80 V:47.84 Avg:39.42 Global:39.37
[libx264 @ 0x556851573c60] frame B:222   Avg QP:33.48  size:   382  PSNR Mean Y:37.48 U:45.81 V:47.84 Avg:38.99 Global:38.97
[libx264 @ 0x556851573c60] consecutive B-frames:  1.0%  0.7%  1.0% 97.3%
[libx264 @ 0x556851573c60] mb I  I16..4: 10.7% 72.8% 16.4%
[libx264 @ 0x556851573c60] mb P  I16..4:  0.4%  0.2%  0.0%  P16..4: 38.7% 22.1% 10.3%  0.0%  0.0%    skip:28.3%
[libx264 @ 0x556851573c60] mb B  I16..4:  0.0%  0.0%  0.0%  B16..8: 30.5%  2.0%  0.1%  direct: 0.1%  skip:67.4%  L0:28.3% L1:65.0% BI: 6.8%
[libx264 @ 0x556851573c60] 8x8 transform intra:64.3% inter:60.1%
[libx264 @ 0x556851573c60] coded y,uvDC,uvAC intra: 67.8% 58.5% 16.5% inter: 8.4% 3.4% 0.0%
[libx264 @ 0x556851573c60] i16 v,h,dc,p:  5% 51% 19% 25%
[libx264 @ 0x556851573c60] i8 v,h,dc,ddl,ddr,vr,hd,vl,hu:  7% 13% 16%  5%  9%  5% 11% 27%  7%
[libx264 @ 0x556851573c60] i4 v,h,dc,ddl,ddr,vr,hd,vl,hu:  7% 12% 13%  8% 13%  6% 15% 21%  6%
[libx264 @ 0x556851573c60] i8c dc,h,v,p: 55% 18% 16% 11%
[libx264 @ 0x556851573c60] Weighted P-Frames: Y:1.3% UV:0.0%
[libx264 @ 0x556851573c60] ref P L0: 63.9% 22.3% 12.0%  1.8%  0.0%
[libx264 @ 0x556851573c60] ref B L0: 93.8%  5.3%  0.9%
[libx264 @ 0x556851573c60] ref B L1: 94.1%  5.9%
[libx264 @ 0x556851573c60] PSNR Mean Y:37.613 U:45.811 V:47.846 Avg:39.113 Global:39.077 kb/s:379.09
